<svg xmlns="http://www.w3.org/2000/svg" viewBox="0 0 340.51 339.8"><defs><style>.cls-1{fill:#4c4c4c;}.cls-2{fill:#e0e0e0;}.cls-3{fill:none;stroke:#4c4c4c;stroke-linejoin:round;stroke-width:4px;}</style></defs><title>Asset 5</title><g id="Layer_2" data-name="Layer 2"><g id="Artboard_3" data-name="Artboard 3"><rect id="Background" class="cls-1" width="340.51" height="339.8" rx="31.54"/><g id="House-Icon"><path id="House" class="cls-2" d="M287.8,152,171.39,46.64a1.66,1.66,0,0,0-2.27,0L52.71,152a1.54,1.54,0,0,0,1.14,2.63H78.31a1.58,1.58,0,0,1,1.61,1.54V282a1.57,1.57,0,0,0,1.6,1.54H259a1.57,1.57,0,0,0,1.6-1.54V156.15a1.58,1.58,0,0,1,1.61-1.54h24.46A1.54,1.54,0,0,0,287.8,152Z"/><path class="cls-2" d="M134.44,295.8c-14.49,0-26.57-9.76-28.73-23.21a21.21,21.21,0,0,1-.19-2.76v-2.46a.49.49,0,0,1,0-.12,25.12,25.12,0,0,1,7.13-16.2,28.43,28.43,0,0,1,11.94-7.5,30.85,30.85,0,0,1,7.05-25.67c6.81-8.24,16.3-12.66,28.21-13.16l1.29,0a31.45,31.45,0,0,1,10.27,1.72c6.41-9.91,15.9-16.12,28.26-18.52a33.13,33.13,0,0,1,5.83-.62h4.21a42.91,42.91,0,0,1,25.92,9.93,37.67,37.67,0,0,1,13.91,27.1,29.18,29.18,0,0,1-.32,6.61,35.67,35.67,0,0,1,19.08,10.77,30.67,30.67,0,0,1,8,15.9,30.37,30.37,0,0,1-7,25.47,35.18,35.18,0,0,1-20,11.9,36.56,36.56,0,0,1-7.81.85h-107Z"/><path class="cls-1" d="M209.61,189.47a40.6,40.6,0,0,1,24.62,9.43,35.36,35.36,0,0,1,13.13,25.57,27.22,27.22,0,0,1-.55,7.47c-.14.67,0,.74.63.85a33.69,33.69,0,0,1,19.25,10.39,28.75,28.75,0,0,1,.9,38.47,33,33,0,0,1-18.84,11.17,34.09,34.09,0,0,1-7.34.79h-107c-13.34,0-24.57-9-26.56-21.37a19.25,19.25,0,0,1-.16-2.41v-2.46a23,23,0,0,1,6.53-14.82,26.47,26.47,0,0,1,12.09-7.25c.66-.19.74-.44.63-1a28.74,28.74,0,0,1,6.37-25c6.43-7.77,15.42-11.9,26.61-12.36l1.2,0a29.46,29.46,0,0,1,10.26,1.85,1.87,1.87,0,0,0,.66.16c.31,0,.5-.18.73-.55,6.1-9.89,15.24-15.95,27.3-18.29a30,30,0,0,1,5.44-.58h4.07m0-4.39h-4.08a33.91,33.91,0,0,0-6.27.66c-12.4,2.41-22.06,8.48-28.75,18.08a33.61,33.61,0,0,0-9.36-1.33q-.69,0-1.38,0c-12.56.52-22.59,5.21-29.81,13.95-6.28,7.6-8.89,16.2-7.78,25.61a30.23,30.23,0,0,0-11.12,7.45,27.31,27.31,0,0,0-7.72,17.59,1.93,1.93,0,0,0,0,.24v2.46a22.52,22.52,0,0,0,.22,3.11c2.32,14.51,15.31,25.05,30.89,25.06h107a39,39,0,0,0,8.28-.89A37.41,37.41,0,0,0,271,284.46a32.46,32.46,0,0,0,7.47-27.24,32.87,32.87,0,0,0-8.51-17,37.63,37.63,0,0,0-18.26-10.95,30.08,30.08,0,0,0,.07-5.1,39.71,39.71,0,0,0-14.68-28.62,45.1,45.1,0,0,0-27.22-10.44Z"/><g id="Chimney"><path class="cls-2" d="M107.48,135.85H87.84V88.18a.37.37,0,0,1,.37-.37h18.91a.37.37,0,0,1,.36.37Z"/></g><g id="Square-Window"><path class="cls-1" d="M191.45,141.44H174.38a.88.88,0,0,1-.88-.88v-18a.87.87,0,0,0-.87-.87h-4.75a.87.87,0,0,0-.87.87v18a.88.88,0,0,1-.88.88H149.06a.87.87,0,0,0-.87.87v4.75a.87.87,0,0,0,.87.87h17.07a.87.87,0,0,1,.88.88v17.36a.87.87,0,0,0,.87.88h4.75a.87.87,0,0,0,.87-.88V148.81a.87.87,0,0,1,.88-.88h17.07a.87.87,0,0,0,.87-.87v-4.75A.87.87,0,0,0,191.45,141.44Z"/><rect class="cls-3" x="148.18" y="121.68" width="44.15" height="45.44"/></g></g></g></g></svg>